<?xml version="1.0"?>
<svg width="350" height="350" xmlns="http://www.w3.org/2000/svg" xmlns:svg="http://www.w3.org/2000/svg" version="1.1" xml:space="preserve">
 <!-- Created with SVG-edit - https://github.com/SVG-Edit/svgedit-->

 <g class="layer">
  <title>Layer 1</title>
  <g id="svg_1">
   <path d="m143.3,163.17l13.96,0c1.44,0 2.79,0.63 3.72,1.72c0.92,1.09 1.33,2.54 1.06,3.95l-7.42,43.86l40.09,-47.58l-13.96,0c-1.44,0 -2.8,-0.63 -3.72,-1.72c-0.93,-1.09 -1.33,-2.54 -1.09,-3.95l7.45,-43.86l-40.09,47.58zm3.54,71.16c-0.7,0 -1.39,-0.15 -2.04,-0.45c-1.98,-0.92 -3.11,-3.06 -2.76,-5.22l9.46,-55.76l-18.67,0c-1.88,0 -3.62,-1.09 -4.42,-2.81c-0.8,-1.72 -0.52,-3.73 0.7,-5.18l58.33,-69.22c1.4,-1.68 3.78,-2.2 5.76,-1.28c1.98,0.92 3.11,3.06 2.74,5.22l-9.45,55.76l18.67,0c1.88,0 3.62,1.09 4.42,2.81c0.8,1.72 0.52,3.73 -0.7,5.18l-58.33,69.22c-0.95,1.12 -2.32,1.74 -3.72,1.74" fill="#76ead7" fill-rule="nonzero" id="svg_2"/>
   <path d="m70.4,185.16l98.59,106.63l98.59,-106.63l-34.65,0c-2.7,0 -4.86,-2.17 -4.86,-4.86l0,-115.81l-118.17,0l0,115.81c0,2.68 -2.17,4.86 -4.86,4.86l-34.65,0zm98.59,118.66c-1.36,0 -2.64,-0.57 -3.57,-1.56l-109.7,-118.66c-1.31,-1.41 -1.66,-3.49 -0.89,-5.25c0.77,-1.76 2.52,-2.92 4.45,-2.92l40.9,0l0,-115.81c0,-2.68 2.17,-4.86 4.86,-4.86l127.9,0c2.68,0 4.86,2.17 4.86,4.86l0,115.81l40.9,0c1.92,0 3.67,1.15 4.45,2.92c0.77,1.76 0.42,3.84 -0.89,5.25l-109.72,118.66c-0.92,0.99 -2.2,1.56 -3.56,1.56" fill="#76ead7" fill-rule="nonzero" id="svg_3"/>
  </g>
 </g>
</svg>