<?xml version="1.0"?>
<svg width="350" height="350" xmlns="http://www.w3.org/2000/svg" xmlns:svg="http://www.w3.org/2000/svg" version="1.1" xml:space="preserve">
 <!-- Created with SVG-edit - https://github.com/SVG-Edit/svgedit-->
 <g class="layer">
  <title>Layer 1</title>
  <g id="svg_1">
   <path d="m156.37,162.11l9.57,0c0.99,0 1.91,0.43 2.55,1.18c0.63,0.75 0.91,1.74 0.73,2.71l-5.09,30.08l27.49,-32.63l-9.57,0c-0.99,0 -1.92,-0.43 -2.55,-1.18c-0.64,-0.75 -0.91,-1.74 -0.75,-2.71l5.11,-30.08l-27.49,32.63zm2.43,48.8c-0.48,0 -0.95,-0.1 -1.4,-0.31c-1.36,-0.63 -2.13,-2.1 -1.89,-3.58l6.49,-38.24l-12.8,0c-1.29,0 -2.48,-0.75 -3.03,-1.93c-0.55,-1.18 -0.36,-2.56 0.48,-3.55l40,-47.47c0.96,-1.15 2.59,-1.51 3.95,-0.88c1.36,0.63 2.13,2.1 1.88,3.58l-6.48,38.24l12.8,0c1.29,0 2.48,0.75 3.03,1.93c0.55,1.18 0.36,2.56 -0.48,3.55l-40,47.47c-0.65,0.77 -1.59,1.19 -2.55,1.19" fill="#76ead7" fill-rule="nonzero" id="svg_2"/>
   <path d="m106.38,177.19l67.61,73.12l67.61,-73.12l-23.76,0c-1.85,0 -3.33,-1.49 -3.33,-3.33l0,-79.42l-81.04,0l0,79.42c0,1.84 -1.49,3.33 -3.33,3.33l-23.76,0zm67.61,81.37c-0.93,0 -1.81,-0.39 -2.45,-1.07l-75.23,-81.37c-0.9,-0.97 -1.14,-2.39 -0.61,-3.6c0.53,-1.21 1.73,-2 3.05,-2l28.05,0l0,-79.42c0,-1.84 1.49,-3.33 3.33,-3.33l87.71,0c1.84,0 3.33,1.49 3.33,3.33l0,79.42l28.05,0c1.32,0 2.52,0.79 3.05,2c0.53,1.21 0.29,2.63 -0.61,3.6l-75.24,81.37c-0.63,0.68 -1.51,1.07 -2.44,1.07" fill="#76ead7" fill-rule="nonzero" id="svg_3"/>
  </g>
 </g>
</svg>