<?xml version="1.0"?>
<svg width="250" height="250" xmlns="http://www.w3.org/2000/svg" xmlns:svg="http://www.w3.org/2000/svg" version="1.1" xml:space="preserve">
 <!-- Created with SVG-edit - https://github.com/SVG-Edit/svgedit-->
 <g class="layer">
  <title>Layer 1</title>
  <path d="m99.31,123.42l9.58,0c0.98,0 1.91,0.43 2.55,1.18c0.63,0.75 0.9,1.74 0.74,2.71l-5.1,30.08l27.5,-32.63l-9.58,0c-0.98,0 -1.91,-0.43 -2.55,-1.18c-0.63,-0.75 -0.9,-1.74 -0.74,-2.71l5.1,-30.08l-27.5,32.63zm2.43,48.8c-0.47,0 -0.95,-0.1 -1.4,-0.31c-1.36,-0.63 -2.14,-2.1 -1.88,-3.58l6.49,-38.24l-12.8,0c-1.3,0 -2.47,-0.75 -3.02,-1.93c-0.55,-1.18 -0.36,-2.56 0.47,-3.55l40,-47.47c0.97,-1.15 2.59,-1.51 3.95,-0.88c1.36,0.63 2.14,2.1 1.88,3.58l-6.49,38.24l12.8,0c1.3,0 2.48,0.75 3.02,1.93c0.55,1.18 0.36,2.56 -0.47,3.55l-40,47.47c-0.65,0.77 -1.59,1.19 -2.55,1.19" fill="#333333" fill-rule="nonzero" id="svg_3"/>
  <path d="m167.64,176.09l21.86,24.85l21.85,-24.85l-5.19,0c-1.84,0 -3.33,-1.49 -3.33,-3.33l0,-34.29l-26.67,0l0,34.29c0,1.84 -1.49,3.33 -3.33,3.33l-5.19,0zm21.86,33.23c-0.96,0 -1.87,-0.41 -2.5,-1.13l-29.23,-33.23c-0.87,-0.98 -1.07,-2.38 -0.53,-3.58c0.54,-1.19 1.73,-1.96 3.04,-1.96l9.23,0l0,-34.29c0,-1.84 1.49,-3.33 3.33,-3.33l33.33,0c1.84,0 3.33,1.49 3.33,3.33l0,34.29l9.23,0c1.31,0 2.5,0.77 3.04,1.96c0.54,1.19 0.33,2.59 -0.53,3.58l-29.23,33.23c-0.63,0.72 -1.55,1.13 -2.5,1.13" fill="#333333" fill-rule="nonzero" id="svg_2"/>
  <path d="m116.94,201.31c-42.58,0 -77.22,-34.64 -77.22,-77.22c0,-42.58 34.64,-77.22 77.22,-77.22c42.58,0 77.22,34.64 77.22,77.22c0,1.84 -1.49,3.33 -3.33,3.33c-1.84,0 -3.33,-1.49 -3.33,-3.33c0,-38.9 -31.65,-70.55 -70.55,-70.55c-38.91,0 -70.56,31.65 -70.56,70.55c0,38.91 31.65,70.56 70.56,70.56c13.65,0 26.89,-3.9 38.29,-11.28c1.54,-1 3.61,-0.56 4.61,0.99c1,1.54 0.56,3.61 -0.99,4.61c-12.48,8.08 -26.97,12.35 -41.91,12.35" fill="#333333" fill-rule="nonzero" id="svg_1"/>
 </g>
</svg>