<?xml version="1.0"?>
<svg width="350" height="350" xmlns="http://www.w3.org/2000/svg" xmlns:svg="http://www.w3.org/2000/svg" preserveAspectRatio="xMidYMid meet" version="1.0">
 <g class="layer">
  <title>Layer 1</title>
  <g fill="#76EAD7" id="svg_1" transform="matrix(0.0893305, 0, 0, -0.0893305, 5.56086, 38.3984)">
   <path d="m1646.92,177.89c-93,-28 -187,-140 -204,-241l-7,-43l-81,0c-45,0 -99,-5 -119,-10c-55,-16 -119,-69 -146,-123l-25,-47l-93,0c-135,0 -186,-13 -228,-60c-24,-26 -36,-52 -41,-82c-3,-24 -5,-564 -3,-1200c3,-1156 3,-1157 24,-1185c11,-15 36,-38 54,-50l33,-23l753,0l753,0l15,22c22,31 20,61 -5,84c-20,18 -51,19 -758,24l-736,5l-3,1155c-2,1077 -1,1156 15,1168c11,7 52,12 115,12l98,0l0,-39c0,-24 8,-48 21,-65l20,-26l647,0c356,0 652,4 658,8c19,13 34,50 34,86l0,36l96,0c52,0 104,-5 115,-10c18,-10 19,-26 19,-458c0,-389 2,-450 16,-470c19,-28 67,-29 94,-2c19,19 20,33 20,478c0,424 -2,460 -19,498c-32,70 -72,87 -222,92l-128,5l-12,30c-19,45 -66,95 -113,120c-32,16 -64,22 -142,25l-102,4l-6,40c-17,104 -110,214 -206,242c-65,19 -139,19 -201,0zm168,-129c21,-9 46,-23 57,-33c32,-28 56,-93 56,-152c0,-34 6,-64 16,-78c14,-21 22,-22 140,-22c149,0 187,-12 209,-64c8,-20 15,-54 15,-76l0,-40l-561,0l-562,0l7,55c12,108 42,125 217,125c149,0 159,5 159,89c1,101 33,159 105,192c49,23 94,24 142,4z" id="svg_2"/>
   <path d="m1757.92,-996.11c-35,-35 -25,-166 14,-192c20,-14 63,-8 79,10c25,28 24,163 -1,185c-25,23 -68,21 -92,-3z" id="svg_3"/>
   <path d="m2975.92,-1318.11c-23,-19 -858,-1096 -870,-1124c-10,-20 -8,-29 9,-52l20,-27l194,-1l194,-1l-3,-34c-2,-19 -7,-59 -12,-89c-5,-30 -28,-192 -51,-359c-31,-232 -38,-310 -30,-327c12,-27 53,-41 81,-28c10,5 65,70 121,144c56,74 163,216 239,315c359,474 508,672 518,692c17,31 15,50 -8,73c-19,19 -33,20 -210,20c-174,0 -190,1 -190,18c0,9 22,172 50,362c27,190 50,357 50,372c0,46 -65,75 -102,46zm-100,-555c-21,-142 -38,-275 -39,-296c-4,-66 9,-71 195,-77l164,-5l-159,-210c-88,-115 -216,-286 -287,-379c-70,-93 -136,-181 -148,-194c-21,-26 -18,6 61,555c5,37 3,46 -20,69l-26,26l-156,-8c-111,-5 -155,-4 -152,4c5,15 593,771 599,771c3,1 -11,-115 -32,-256z" id="svg_4"/>
   <path d="m1562.92,-1341.11c-30,-29 -32,-54 -5,-83c18,-19 31,-22 100,-22l80,0l0,-250l0,-250l-79,0c-74,0 -81,-2 -100,-26c-27,-34 -26,-50 4,-79l24,-25l221,0c207,0 221,1 240,20c25,25 26,72 2,93c-14,13 -38,17 -100,17l-82,0l0,299c0,362 15,331 -163,331c-112,0 -119,-1 -142,-25z" id="svg_5"/>
  </g>
 </g>

</svg>