<?xml version="1.0"?>
<svg width="250" height="250" xmlns="http://www.w3.org/2000/svg" xmlns:svg="http://www.w3.org/2000/svg" version="1.1" xml:space="preserve">
 <!-- Created with SVG-edit - https://github.com/SVG-Edit/svgedit-->
 <g class="layer">
  <title>Layer 1</title>
  <g id="svg_1">
   <path d="m795.78,725.5l72.06,0l15.5,-12.67l-15.5,-12.67l-72.06,0l0,25.33zm73.25,6.67l-76.58,0c-1.84,0 -3.33,-1.49 -3.33,-3.33l0,-32c0,-1.84 1.49,-3.33 3.33,-3.33l76.58,0c0.77,0 1.51,0.27 2.11,0.75l19.58,16c0.78,0.63 1.22,1.58 1.22,2.58c0,1 -0.45,1.95 -1.22,2.58l-19.58,16c-0.59,0.49 -1.34,0.75 -2.11,0.75" fill="#333333" fill-rule="nonzero" id="svg_2"/>
   <path d="m795.78,678.83l43.26,0l15.5,-12.67l-15.5,-12.67l-43.26,0l0,25.33zm44.45,6.67l-47.78,0c-1.84,0 -3.33,-1.49 -3.33,-3.33l0,-32c0,-1.84 1.49,-3.33 3.33,-3.33l47.78,0c0.77,0 1.51,0.27 2.11,0.75l19.58,16c0.77,0.63 1.22,1.58 1.22,2.58c0,1 -0.45,1.95 -1.22,2.58l-19.58,16c-0.59,0.49 -1.34,0.75 -2.11,0.75" fill="#333333" fill-rule="nonzero" id="svg_3"/>
   <path d="m795.78,632.17l14.46,0l15.5,-12.67l-15.5,-12.67l-14.46,0l0,25.33zm15.65,6.67l-18.98,0c-1.84,0 -3.33,-1.49 -3.33,-3.33l0,-32c0,-1.84 1.49,-3.33 3.33,-3.33l18.98,0c0.77,0 1.51,0.27 2.11,0.75l19.58,16c0.77,0.63 1.22,1.58 1.22,2.58c0,1 -0.45,1.95 -1.22,2.58l-19.58,16c-0.59,0.49 -1.34,0.75 -2.11,0.75" fill="#333333" fill-rule="nonzero" id="svg_4"/>
   <path d="m739.12,628.83c-1.84,0 -3.33,-1.49 -3.33,-3.33l0,-16.67c0,-1.84 1.49,-3.33 3.33,-3.33l14.67,0c1.84,0 3.33,1.49 3.33,3.33l0,4.67c0,1.84 -1.49,3.33 -3.33,3.33c-1.84,0 -3.33,-1.49 -3.33,-3.33l0,-1.33l-8,0l0,13.33c0,1.84 -1.49,3.33 -3.33,3.33" fill="#333333" fill-rule="nonzero" id="svg_5"/>
   <path d="m753.12,692.17l20,0l0,-20l-20,0l0,20zm23.33,6.67l-26.67,0c-1.84,0 -3.33,-1.49 -3.33,-3.33l0,-26.67c0,-1.84 1.49,-3.33 3.33,-3.33l26.67,0c1.84,0 3.33,1.49 3.33,3.33l0,26.67c0,1.84 -1.49,3.33 -3.33,3.33" fill="#333333" fill-rule="nonzero" id="svg_6"/>
   <path d="m781.12,732.17l-52.67,0c-1.84,0 -3.33,-1.49 -3.33,-3.33l0,-63.33l-13.74,0c-1.4,0 -2.66,-0.88 -3.13,-2.2c-0.48,-1.32 -0.08,-2.8 1,-3.7l69.25,-57.65c1.41,-1.18 3.52,-0.99 4.69,0.43c1.18,1.41 0.99,3.52 -0.43,4.69l-62.17,51.75l7.86,0c1.84,0 3.33,1.49 3.33,3.33l0,63.33l49.33,0c1.84,0 3.33,1.49 3.33,3.33c0,1.84 -1.49,3.33 -3.33,3.33" fill="#333333" fill-rule="nonzero" id="svg_7"/>
  </g>
  <g id="svg_8">
   <path d="m119.78,188.83l72.06,0l15.5,-12.67l-15.5,-12.67l-72.06,0l0,25.33zm73.25,6.67l-76.58,0c-1.84,0 -3.33,-1.49 -3.33,-3.33l0,-32c0,-1.84 1.49,-3.33 3.33,-3.33l76.58,0c0.77,0 1.51,0.27 2.11,0.75l19.58,16c0.78,0.63 1.22,1.58 1.22,2.58c0,1 -0.45,1.95 -1.22,2.58l-19.58,16c-0.59,0.49 -1.34,0.75 -2.11,0.75" fill="#333333" fill-rule="nonzero" id="svg_9"/>
   <path d="m119.78,142.17l43.26,0l15.5,-12.67l-15.5,-12.67l-43.26,0l0,25.33zm44.45,6.67l-47.78,0c-1.84,0 -3.33,-1.49 -3.33,-3.33l0,-32c0,-1.84 1.49,-3.33 3.33,-3.33l47.78,0c0.77,0 1.51,0.27 2.11,0.75l19.58,16c0.77,0.63 1.22,1.58 1.22,2.58c0,1 -0.45,1.95 -1.22,2.58l-19.58,16c-0.59,0.49 -1.34,0.75 -2.11,0.75" fill="#333333" fill-rule="nonzero" id="svg_10"/>
   <path d="m119.78,95.5l14.46,0l15.5,-12.67l-15.5,-12.67l-14.46,0l0,25.33zm15.65,6.67l-18.98,0c-1.84,0 -3.33,-1.49 -3.33,-3.33l0,-32c0,-1.84 1.49,-3.33 3.33,-3.33l18.98,0c0.77,0 1.51,0.27 2.11,0.75l19.58,16c0.77,0.63 1.22,1.58 1.22,2.58c0,1 -0.45,1.95 -1.22,2.58l-19.58,16c-0.59,0.49 -1.34,0.75 -2.11,0.75" fill="#333333" fill-rule="nonzero" id="svg_11"/>
   <path d="m63.12,92.17c-1.84,0 -3.33,-1.49 -3.33,-3.33l0,-16.67c0,-1.84 1.49,-3.33 3.33,-3.33l14.67,0c1.84,0 3.33,1.49 3.33,3.33l0,4.67c0,1.84 -1.49,3.33 -3.33,3.33c-1.84,0 -3.33,-1.49 -3.33,-3.33l0,-1.33l-8,0l0,13.33c0,1.84 -1.49,3.33 -3.33,3.33" fill="#333333" fill-rule="nonzero" id="svg_12"/>
   <path d="m77.12,155.5l20,0l0,-20l-20,0l0,20zm23.33,6.67l-26.67,0c-1.84,0 -3.33,-1.49 -3.33,-3.33l0,-26.67c0,-1.84 1.49,-3.33 3.33,-3.33l26.67,0c1.84,0 3.33,1.49 3.33,3.33l0,26.67c0,1.84 -1.49,3.33 -3.33,3.33" fill="#333333" fill-rule="nonzero" id="svg_13"/>
   <path d="m105.12,195.5l-52.67,0c-1.84,0 -3.33,-1.49 -3.33,-3.33l0,-63.33l-13.74,0c-1.4,0 -2.66,-0.88 -3.13,-2.2c-0.48,-1.32 -0.08,-2.8 1,-3.7l69.25,-57.65c1.41,-1.18 3.52,-0.99 4.69,0.43c1.18,1.41 0.99,3.52 -0.43,4.69l-62.17,51.75l7.86,0c1.84,0 3.33,1.49 3.33,3.33l0,63.33l49.33,0c1.84,0 3.33,1.49 3.33,3.33c0,1.84 -1.49,3.33 -3.33,3.33" fill="#333333" fill-rule="nonzero" id="svg_14"/>
  </g>
 </g>
</svg>