<?xml version="1.0"?>
<svg width="250" height="250" xmlns="http://www.w3.org/2000/svg" xmlns:svg="http://www.w3.org/2000/svg" version="1.1" xml:space="preserve">
 <!-- Created with SVG-edit - https://github.com/SVG-Edit/svgedit-->

 <g class="layer">
  <title>Layer 1</title>
  <path d="m111.71,126.06l4.12,0c0.98,0 1.92,0.43 2.55,1.19c0.63,0.75 0.9,1.75 0.73,2.72l-2.57,14.69l14.15,-17.26l-4.12,0c-0.98,0 -1.92,-0.43 -2.55,-1.19c-0.63,-0.75 -0.9,-1.75 -0.73,-2.72l2.57,-14.69l-14.15,17.26zm-0.64,33.87c-0.47,0 -0.94,-0.1 -1.39,-0.3c-1.38,-0.63 -2.16,-2.11 -1.89,-3.61l4.08,-23.29l-7.2,0c-1.29,0 -2.46,-0.74 -3.01,-1.91c-0.55,-1.16 -0.38,-2.54 0.43,-3.54l26.67,-32.53c0.96,-1.17 2.59,-1.55 3.97,-0.92c1.38,0.63 2.15,2.11 1.89,3.61l-4.08,23.29l7.2,0c1.29,0 2.46,0.74 3.01,1.91c0.55,1.16 0.38,2.54 -0.43,3.54l-26.67,32.53c-0.65,0.79 -1.6,1.22 -2.58,1.22" fill="#333333" fill-rule="nonzero" id="svg_4" stroke="#000000" stroke-opacity="0"/>
  <path d="m122.98,44.94c5,0 9.07,4.07 9.07,9.07c0,5 -4.07,9.07 -9.07,9.07c-5,0 -9.07,-4.07 -9.07,-9.07c0,-5 4.07,-9.07 9.07,-9.07zm0,24.8c8.67,0 15.73,-7.06 15.73,-15.73c0,-8.67 -7.06,-15.73 -15.73,-15.73c-8.67,0 -15.73,7.06 -15.73,15.73c0,8.68 7.06,15.73 15.73,15.73" fill="#333333" fill-rule="nonzero" id="svg_3" stroke="#000000" stroke-opacity="0"/>
  <path d="m200.65,118.98c-1.63,-1.7 -2.78,-3.77 -2.82,-5.38c-0.01,-0.55 -0.03,-1.12 1.67,-1.41c0.34,-0.06 0.63,-0.09 0.86,-0.09c0.94,0 1.08,0.42 1.21,0.83c0.5,1.52 0.09,3.88 -0.92,6.04l0,0.01zm-41.49,49.12c-1,0.55 -1.64,1.58 -1.71,2.72l-1.18,20.57l-18.9,0l-0.63,-11.01c-0.05,-0.95 -0.51,-1.83 -1.25,-2.42c-0.74,-0.59 -1.69,-0.85 -2.64,-0.69c-4.81,0.81 -9.91,0.79 -15.27,0.79l-0.7,0c-6.15,0 -11.24,-0.15 -16.1,-0.98c-0.94,-0.16 -1.9,0.11 -2.64,0.7c-0.74,0.59 -1.2,1.47 -1.25,2.42l-0.63,11.19l-18.88,0l-1.03,-20.61c-0.06,-1.15 -0.7,-2.18 -1.7,-2.75c-9.74,-5.44 -17.61,-13.58 -22.16,-22.91c-0.49,-1.02 -1.47,-1.71 -2.59,-1.85l-10.05,-1.23l0,-24.85l10.01,-1.23c1.12,-0.14 2.1,-0.84 2.59,-1.85c2.35,-4.85 5.23,-8.99 8.73,-12.56l0,0.49c0,1.84 1.49,3.33 3.33,3.33c1.84,0 3.33,-1.49 3.33,-3.33l0,-30.56c4.99,2.42 13.05,8.1 15.43,20.19c0.36,1.81 2.11,2.99 3.91,2.63c1.81,-0.35 2.98,-2.11 2.63,-3.91c-0.41,-2.09 -0.96,-4.02 -1.61,-5.81c0.84,-0.23 1.71,-0.46 2.61,-0.69l1.7,7.01c0.21,0.89 0.79,1.65 1.58,2.11c0.79,0.45 1.74,0.56 2.62,0.3c0.07,-0.02 7.6,-2.23 19.84,-2.23c12.24,0 22.78,3.45 22.88,3.49c0.34,0.11 0.7,0.17 1.05,0.17c0.6,0 1.2,-0.16 1.72,-0.48c0.83,-0.5 1.41,-1.34 1.57,-2.3l1.04,-6.19c24.18,7.71 40.46,25.05 40.46,44.05c0,14.88 -9.77,29.19 -26.14,38.29l0.03,-0.01zm60.02,-50.6c-1.58,-0.94 -3.63,-0.43 -4.57,1.15c-0.03,0.04 -2.38,3.85 -8.05,3.44c1.8,-3.67 2.45,-7.88 1.34,-11.25c-1.32,-4.01 -4.98,-6.02 -9.53,-5.23c-4.56,0.78 -7.33,3.91 -7.21,8.17c0.09,3.24 2.04,7.08 4.98,10.06c-1.92,0.94 -3.34,1.49 -4.41,1.83c-2.34,-22.45 -23.6,-42.07 -53.32,-48.53c-1.8,-0.39 -3.57,0.75 -3.97,2.55c-0.39,1.8 0.75,3.57 2.55,3.97c0.46,0.1 0.92,0.21 1.38,0.32l-0.53,3.19c-4.44,-1.14 -12.36,-2.77 -21.27,-2.77c-8.4,0 -14.73,0.96 -18.35,1.7l-0.86,-3.53c0.38,-0.06 0.75,-0.13 1.14,-0.18c1.83,-0.22 3.13,-1.88 2.91,-3.71c-0.22,-1.83 -1.88,-3.13 -3.71,-2.91c-4.78,0.58 -8.82,1.69 -12.41,2.71c-7.26,-11.92 -19.36,-14.9 -20.01,-15.05c-0.99,-0.23 -2.03,0 -2.83,0.63c-0.8,0.63 -1.26,1.59 -1.26,2.61l0,25.92c-5.78,4.6 -10.35,10.17 -13.9,16.98l-11.17,1.37c-1.67,0.21 -2.93,1.63 -2.93,3.31l0,30.75c0,1.68 1.26,3.1 2.93,3.31l11.22,1.37c4.96,9.34 12.83,17.49 22.45,23.25l1.09,21.96c0.09,1.77 1.55,3.17 3.33,3.17l25.2,0c1.77,0 3.23,-1.39 3.33,-3.16l0.6,-10.73c4.17,0.47 8.53,0.55 13.53,0.55l0.7,0c4.19,0 8.49,0.02 12.71,-0.39l0.6,10.58c0.1,1.77 1.56,3.14 3.33,3.14l25.2,0c1.77,0 3.23,-1.38 3.33,-3.14l1.25,-21.91c16.59,-9.78 26.79,-24.65 27.86,-40.46c1.93,-0.43 4.46,-1.32 7.8,-3.01c0.87,-0.44 1.7,-1 2.48,-1.65c1.01,0.39 2.05,0.66 3.1,0.78c10.32,1.19 14.9,-6.28 15.09,-6.6c0.94,-1.58 0.43,-3.63 -1.15,-4.57" fill="#333333" fill-rule="nonzero" id="svg_2" stroke="#000000" stroke-opacity="0"/>
  <path d="m71.36,107.92c-2.32,0 -4.2,1.88 -4.2,4.2c0,2.32 1.88,4.2 4.2,4.2c2.32,0 4.2,-1.88 4.2,-4.2c0,-2.32 -1.88,-4.2 -4.2,-4.2" fill="#333333" fill-rule="nonzero" id="svg_1" stroke="#000000" stroke-opacity="0"/>
 </g>
</svg>