<?xml version="1.0" encoding="utf-8"?>
<!-- Generator: Adobe Illustrator 16.0.3, SVG Export Plug-In . SVG Version: 6.00 Build 0)  -->
<!DOCTYPE svg PUBLIC "-//W3C//DTD SVG 1.1//EN" "http://www.w3.org/Graphics/SVG/1.1/DTD/svg11.dtd">
<svg version="1.1" id="Capa_1" xmlns="http://www.w3.org/2000/svg" xmlns:xlink="http://www.w3.org/1999/xlink" x="0px" y="0px"
	 width="597.968px" height="416.125px" viewBox="0 0 597.968 416.125" enable-background="new 0 0 597.968 416.125"
	 xml:space="preserve">
<g>
	<path fill-rule="evenodd" clip-rule="evenodd" fill="#53A907" d="M404.237,174.883c-0.105,15.446-2.864,30.356-9.572,44.338
		c-1.934,4.027-1.856,6.448,2.587,8.534c1.979,0.931,5.675,1.432,5.403,4.124c-0.232,2.286-3.634,2.922-5.793,3.986
		c-12.055,5.948-24.174,11.765-36.199,17.765c-2.765,1.383-4.153,1.427-4.416-2.163c-1.099-14.878-2.271-29.748-3.523-44.611
		c-0.327-3.868,1.05-3.644,3.901-2.316c9.696,4.512,10.021,4.213,13.174-6.489c10.906-37.051-3.199-71.354-32.01-91.328
		c-3.743-2.595-8.015-4.439-12.099-6.525c-2.716-1.388-3.698-2.429-0.402-4.588c6.715-4.396,13.422-8.861,19.693-13.85
		c3.813-3.033,6.711-2.834,10.449-0.18c22.789,16.178,38.292,37.404,45.348,64.601C403.221,155.596,404.338,165.165,404.237,174.883
		z"/>
	<path fill-rule="evenodd" clip-rule="evenodd" fill="#53A907" d="M289.486,284.461c-31.529-1.188-57.554-14.066-78.785-37.035
		c-3.323-3.594-6.317-7.541-9.099-11.573c-2.122-3.079-4.043-3.666-7.262-1.515c-2.33,1.557-5.099,4.957-7.483,3.405
		c-2.194-1.427-0.611-5.482-0.415-8.337c0.876-12.749,1.986-25.481,2.897-38.229c0.258-3.611,1.376-4.697,4.939-2.942
		c12.629,6.224,25.362,12.239,38.022,18.401c1.548,0.753,4.033,1.056,4.069,3.035c0.03,1.655-2.378,1.968-3.696,2.882
		c-0.938,0.654-1.952,1.211-2.975,1.727c-3.347,1.686-3.428,3.932-1.328,6.727c10.228,13.606,23.179,23.528,39.429,28.839
		c23.124,7.556,45.259,4.965,66.339-6.993c2.402-1.363,4.505-3.243,6.796-4.815c2.056-1.409,3.29-1.046,3.508,1.679
		c0.745,9.316,1.558,18.627,2.335,27.941c0.18,2.179-0.629,3.683-2.699,4.729C326.899,281.075,308.696,285.029,289.486,284.461z"/>
	<path fill-rule="evenodd" clip-rule="evenodd" fill="#53A907" d="M329.905,77.84c-9.087,7.619-18.856,14.048-28.435,20.731
		c-3.488,2.433-6.949,4.912-10.464,7.31c-2.13,1.456-3.352,0.996-3.237-1.771c0.026-0.656,0.093-1.31,0.104-1.964
		c0.145-8.785-0.407-9.099-9.291-7.49c-39.632,7.185-68.055,43-65.216,85.036c0.377,5.577,0.102,5.768-5.198,3.276
		c-6.965-3.275-13.815-6.808-20.865-9.886c-3.786-1.653-4.933-4.021-4.547-8.027c2.855-29.664,14.807-54.719,37.247-74.586
		c17.465-15.463,37.736-24.667,60.954-26.953c5.052-0.499,7.012-2.272,6.454-7.328c-0.254-2.29-1.357-5.637,1.064-6.775
		c2.317-1.091,4.184,1.922,6.156,3.251c8.967,6.043,17.823,12.253,26.853,18.2C324.501,72.85,326.929,75.425,329.905,77.84z"/>
	<path fill-rule="evenodd" clip-rule="evenodd" fill="#0757BC" d="M291.122,296.537c17.477-0.02,34.952-0.074,52.427-0.033
		c4.821,0.013,9.582,0.529,13.72,3.439c5.314,3.736,5.317,8.593-0.041,12.381c-3.563,2.52-7.688,3.251-11.896,3.261
		c-35.879,0.087-71.759,0.106-107.639,0.134c-3.596,0.002-7.111-0.765-10.423-2.02c-3.157-1.194-5.752-3.481-6.002-7.053
		c-0.239-3.421,2.085-5.693,4.881-7.311c3.725-2.15,7.865-2.68,12.08-2.686c17.629-0.039,35.262-0.047,52.892-0.066
		C291.121,296.567,291.121,296.552,291.122,296.537z"/>
	<path fill-rule="evenodd" clip-rule="evenodd" fill="#0757BC" d="M290.91,320.725c12.323-0.036,24.647-0.072,36.972-0.106
		c3.274-0.009,6.38,0.57,9.053,2.621c3.548,2.721,3.505,7.04-0.199,9.582c-2.045,1.403-4.33,2.337-6.892,2.345
		c-25.758,0.078-51.515,0.209-77.271,0.194c-5.399-0.003-9.756-3.582-9.625-7.325c0.127-3.639,4.712-7.125,9.882-7.175
		C265.522,320.736,278.215,320.758,290.91,320.725z"/>
	<path fill-rule="evenodd" clip-rule="evenodd" fill="#0757BC" d="M258.987,290.23c3.868-13.937,7.699-27.437,11.358-40.986
		c4.825-17.867,9.508-35.766,14.27-53.647c1.729-6.497,0.384-9.819-7.448-9.269c-10.031,0.705-20.142,0.201-30.209,0.504
		c-6.343,0.192-8.678-0.964-4.683-7.555c24.568-40.527,49.712-80.714,72.942-122.046c1.505-2.679,4.321-4.622,7.63-8.052
		c-8.274,31.194-16.152,60.863-24.011,90.54c-3.264,12.324-2.279,13.632,10.319,13.515c8.125-0.074,16.245-0.375,24.369-0.4
		c9.96-0.03,10.665,1.054,5.543,9.563c-15.245,25.325-30.686,50.536-45.978,75.835c-9.67,15.997-19.173,32.093-28.875,48.069
		C263.315,287.782,262.84,290.079,258.987,290.23z"/>
	<path fill-rule="evenodd" clip-rule="evenodd" fill="#0757BC" d="M291.301,338.455c10.415,0.031,20.83,0.047,31.246,0.123
		c1.196,0.007,2.873-0.644,3.491,0.646c0.638,1.334-0.959,2.134-1.81,2.94c-13.531,12.821-29.52,15.563-47.236,10.952
		c-7.502-1.952-13.649-6.188-19.065-11.487c-0.691-0.677-2.104-1.485-1.433-2.764c0.541-1.03,1.812-0.555,2.799-0.551
		c10.669,0.036,21.338,0.07,32.007,0.102C291.301,338.428,291.301,338.44,291.301,338.455z"/>
</g>
</svg>
